<?xml version="1.0" encoding="utf-8"?>
<!-- Generator: Adobe Illustrator 16.0.0, SVG Export Plug-In . SVG Version: 6.00 Build 0)  -->
<!DOCTYPE svg PUBLIC "-//W3C//DTD SVG 1.1//EN" "http://www.w3.org/Graphics/SVG/1.1/DTD/svg11.dtd">
<svg version="1.1" id="Layer_1" xmlns="http://www.w3.org/2000/svg" xmlns:xlink="http://www.w3.org/1999/xlink" x="0px" y="0px"
	 width="148.432px" height="149.641px" viewBox="0 0 148.432 149.641" enable-background="new 0 0 148.432 149.641"
	 xml:space="preserve">
<path fill="#FFFFFF" d="M12.572,55.24c-0.574,0.739-1.022,1.609-1.261,2.535c-0.234,0.91-0.14,2.182,1.295,2.556
	c2.286,0.591,2.817-5.442,7.241-4.296c2.893,0.747,3.397,3.316,2.706,5.98c-0.37,1.438-0.728,2.031-1.384,3.251l-2.318-0.861
	c0.725-0.78,1.316-1.734,1.583-2.774c0.26-1.002,0.101-2.476-1.093-2.783c-2.514-0.649-2.97,5.4-7.336,4.271
	c-2.948-0.764-3.434-3.328-2.832-5.654c0.293-1.134,0.717-2.152,1.289-3.034L12.572,55.24L12.572,55.24z"/>
<path fill="#FFFFFF" d="M17.348,44.713l-0.02,0.035l4.041,4.38l1.867-3.517L17.348,44.713L17.348,44.713z M14.229,44.758
	l1.449-2.724l14.541,1.673l-1.42,2.672l-3.308-0.432l-2.595,4.879l2.199,2.515l-1.326,2.501L14.229,44.758L14.229,44.758z"/>
<polygon fill="#FFFFFF" points="21.245,33.547 26.191,27.812 27.814,29.212 24.656,32.88 27.199,35.071 30.208,31.583 
	31.834,32.984 28.826,36.472 33.35,40.373 31.566,42.443 21.245,33.547 "/>
<polygon fill="#FFFFFF" points="29.852,24.374 36.182,19.414 37.508,21.106 33.328,24.379 35.398,27.021 39.225,24.025 
	40.55,25.715 36.723,28.712 39.081,31.726 43.292,28.426 44.618,30.115 38.256,35.1 29.852,24.374 "/>
<path fill="#FFFFFF" d="M51.889,21.817c-0.211,2.642-0.739,5.277-2.701,6.276c-1.522,0.777-3.125-0.393-4.206-2.515
	c-1.888-3.697-1.563-7.908,0.018-10.358c0.366-0.597,1.108-1.729,1.66-2.011c0.419-0.216,1.125-0.094,1.487,0.611
	c0.416,0.816,0.322,1.619-0.154,1.862c-0.666,0.339-1.416-0.376-2.005-0.075c-1.923,0.979-0.775,6.667,0.376,8.924
	c0.793,1.549,1.962,2.15,3.086,1.579c1.293-0.66,1.736-2.942,1.924-4.648L51.889,21.817L51.889,21.817z"/>
<path fill="#FFFFFF" d="M60.244,22.869c2.674-0.677,2.49-6.173,1.719-9.223c-0.533-2.1-1.619-4.029-3.398-3.578
	c-2.775,0.705-2.604,5.983-1.779,9.238C57.348,21.525,58.424,23.331,60.244,22.869L60.244,22.869z M58.387,9.295
	c2.405-0.61,4.641,1.596,5.502,4.996c1.061,4.173-0.465,8.592-3.426,9.342c-2.486,0.633-4.683-1.331-5.591-4.912
	C53.791,14.461,55.385,10.056,58.387,9.295L58.387,9.295z"/>
<path fill="#FFFFFF" d="M68.375,11.319c0.8-1.44,2.276-3.867,3.688-3.876c0.511-0.005,0.729,0.452,0.734,1.029
	c0.004,0.52-0.141,1.102-0.224,1.47l-1.071,4.619h0.041c1.008-2.117,4.129-7.182,6.224-7.168c0.665-0.004,0.857,0.573,0.866,1.244
	c0.004,0.49-0.098,1.072-0.201,1.498l-1.655,6.731c-0.187,0.734-0.31,1.224-0.305,1.59c0.003,0.366,0.09,0.64,0.389,0.638
	c0.576-0.005,1.506-1.448,1.819-2.152l0.366,0.395l-0.759,1.348c-0.734,1.321-1.771,2.673-2.947,2.682
	c-0.555,0.005-0.814-0.451-0.818-0.999c-0.006-0.489,0.055-1.009,0.281-1.896l1.613-6.517c0.062-0.276,0.27-1.102,0.265-1.527
	c-0.002-0.398-0.262-0.58-0.495-0.578c-1.197,0.01-2.398,2.067-3.093,3.201c-1.161,1.812-2.063,3.925-2.622,6.25l-0.41,1.742
	c-0.064,0.245-0.531,0.34-0.789,0.346c-0.213,0-0.579-0.18-0.686-0.394l2.016-9.021c0.125-0.581,0.248-1.164,0.244-1.529
	c-0.004-0.306-0.088-0.548-0.348-0.546c-0.445,0.002-0.848,0.495-1.229,1.048l-0.566,0.921L68.375,11.319L68.375,11.319z"/>
<path fill="#FFFFFF" d="M88.432,5.466l1.676,0.325l-1.589,3.61l2.242,0.434l-0.487,1.18l-2.226-0.429l-3.501,8.309
	c-0.116,0.257-0.25,0.604-0.307,0.903c-0.069,0.359-0.023,0.679,0.292,0.74c0.819,0.157,2.41-1.43,3.105-2.104l0.196,0.567
	c-1.236,1.316-3.501,3.8-5.031,3.504c-0.608-0.119-0.772-0.958-0.622-1.739c0.115-0.598,0.44-1.374,0.644-1.864l3.609-8.631
	l-2.056-0.396l0.484-1.179l2.039,0.393L88.432,5.466L88.432,5.466z"/>
<path fill="#FFFFFF" d="M93.41,14.378c0.902-0.866,3.49-3.048,4.472-2.675c0.499,0.189,0.7,0.626,0.406,1.395
	c-0.121,0.315-0.406,0.826-0.767,1.408l-2.244,3.62l0.039,0.015c1.094-1.249,4.88-5.557,6.139-5.076
	c0.419,0.159,0.489,0.578,0.25,1.204c-0.25,0.656-1.022,2.029-1.641,1.791c-0.241-0.089-0.457-0.304-0.697-0.396
	c-1.377-0.523-4.902,4.472-6.668,7.13l-1.056,1.69c-0.116,0.186-0.446,0.09-0.805-0.046c-0.261-0.099-0.544-0.501-0.444-0.756
	c0.032-0.088,0.086-0.165,0.136-0.242l4.578-7.274c0.272-0.419,0.717-1.163,0.877-1.592c0.121-0.312,0.164-0.786-0.094-0.885
	c-0.541-0.207-1.871,0.824-2.406,1.272L93.41,14.378L93.41,14.378z"/>
<path fill="#FFFFFF" d="M101.791,26.88c1.745,1.113,7.438-2.904,8.896-5.194c0.41-0.646,0.401-1.59-0.069-1.888
	c-1.945-1.237-6.998,2.168-8.617,4.721C101.442,25.394,101.084,26.432,101.791,26.88L101.791,26.88z M113.269,19.815
	c0.188-0.136,0.507-0.399,0.724-0.264l0.377,0.242c0.11,0.068,0.128,0.152,0.083,0.229c-0.033,0.052-0.087,0.095-0.169,0.186
	l-7.599,8.01c-0.202,0.199-0.317,0.342-0.48,0.599c-0.114,0.18-0.175,0.396-0.012,0.5c0.522,0.331,1.678-0.454,2.299-0.672
	l0.076,0.52c-1.377,0.607-3.879,2.234-5.015,1.512c-0.273-0.169-0.481-0.595-0.155-1.11c0.28-0.439,0.883-1.066,1.502-1.686
	l2.015-2.011l-0.039-0.025l-0.05,0.042l0.037,0.021l0.013-0.063c-2.178,1.399-5.737,3.298-7.18,2.381
	c-1.101-0.701-0.602-2.082-0.013-3.011c2.604-4.095,9.887-7.787,12.215-6.309c0.447,0.286,0.635,0.912,0.594,1.574L113.269,19.815
	L113.269,19.815z"/>
<path fill="#FFFFFF" d="M117.368,36.82c-2.575,0.637-5.239,0.972-6.811-0.572c-1.218-1.198-0.615-3.089,1.051-4.788
	c2.912-2.961,7.003-3.986,9.833-3.263c0.682,0.154,1.99,0.501,2.433,0.935c0.336,0.33,0.448,1.038-0.108,1.604
	c-0.643,0.653-1.433,0.818-1.812,0.445c-0.536-0.524-0.096-1.463-0.568-1.926c-1.537-1.513-6.566,1.377-8.341,3.186
	c-1.22,1.24-1.422,2.543-0.522,3.426c1.036,1.017,3.342,0.715,5.019,0.352L117.368,36.82L117.368,36.82z"/>
<path fill="#FFFFFF" d="M132.521,34.674l0.985,1.397l-3.649,1.499l1.316,1.868l-1.172,0.513l-1.304-1.853l-8.282,3.564
	c-0.262,0.104-0.599,0.261-0.851,0.438c-0.296,0.211-0.485,0.474-0.303,0.734c0.483,0.684,2.73,0.641,3.698,0.638l-0.251,0.543
	c-1.804,0.092-5.156,0.315-6.057-0.96c-0.354-0.51,0.11-1.227,0.76-1.685c0.497-0.352,1.27-0.686,1.755-0.897l8.583-3.721
	l-1.205-1.712l1.168-0.511l1.195,1.693L132.521,34.674L132.521,34.674z"/>
<path fill="#FFFFFF" d="M123.235,52.662c1.103,2.527,6.499,1.456,9.381,0.197c1.988-0.865,3.715-2.25,2.977-3.936
	c-1.142-2.623-6.325-1.598-9.402-0.256C124.092,49.584,122.485,50.939,123.235,52.662L123.235,52.662z M136.331,48.627
	c0.99,2.271-0.822,4.835-4.037,6.24c-3.947,1.721-8.554,0.933-9.776-1.867c-1.024-2.349,0.556-4.834,3.94-6.313
	C130.487,44.929,135.092,45.787,136.331,48.627L136.331,48.627z"/>
<path fill="#FFFFFF" d="M135.568,58.773c1.214,0.301,4.44,1.328,4.647,2.355c0.104,0.521-0.159,0.924-0.965,1.086
	c-0.328,0.068-0.913,0.097-1.599,0.104l-4.26,0.03l0.007,0.043c1.641,0.256,7.303,1.166,7.572,2.485
	c0.089,0.438-0.23,0.723-0.889,0.855c-0.688,0.138-2.259,0.213-2.393-0.435c-0.049-0.252,0.014-0.548-0.034-0.8
	c-0.291-1.445-6.396-1.763-9.588-1.84l-1.991,0.01c-0.22,0-0.316-0.331-0.391-0.706c-0.058-0.271,0.132-0.725,0.401-0.777
	c0.093-0.021,0.184-0.018,0.279-0.015l8.593-0.008c0.497,0.008,1.368-0.015,1.817-0.106c0.328-0.066,0.751-0.28,0.695-0.554
	c-0.112-0.565-1.692-1.141-2.355-1.355L135.568,58.773L135.568,58.773z"/>
<path fill="#FFFFFF" d="M32.102,114.646l-0.029-0.032l-5.928,2.661l2.988,3.152L32.102,114.646L32.102,114.646z M33.14,111.406
	l2.315,2.441l-6.773,14.462l-2.271-2.395l1.594-3.271l-4.147-4.375l-3.367,1.403l-2.122-2.24L33.14,111.406L33.14,111.406z"/>
<path fill="#FFFFFF" d="M39.244,125.874l0.874,0.57c1.249,0.814,2.641,1.137,3.581-0.308c0.943-1.445,0.182-2.654-1.104-3.491
	l-0.872-0.569L39.244,125.874L39.244,125.874z M40.507,118.484l3.154,2.059c2.712,1.77,4.681,4.173,2.735,7.15
	c-1.895,2.906-4.705,2.574-7.377,0.831l-1.054-0.688l-3.085,4.728l-2.496-1.627L40.507,118.484L40.507,118.484z"/>
<path fill="#FFFFFF" d="M50.445,131.97l0.973,0.378c1.389,0.541,2.817,0.569,3.443-1.037c0.625-1.61-0.369-2.637-1.801-3.191
	l-0.971-0.378L50.445,131.97L50.445,131.97z M50.159,124.478l3.513,1.365c3.017,1.174,5.437,3.118,4.148,6.435
	c-1.258,3.234-4.075,3.488-7.053,2.33l-1.17-0.454l-2.047,5.259l-2.777-1.078L50.159,124.478L50.159,124.478z"/>
<path fill="#FFFFFF" d="M62.768,135.118l0.969,0.147c1.449,0.224,3.146,0.27,3.428-1.562c0.27-1.769-1.348-2.169-2.819-2.395
	l-0.97-0.148L62.768,135.118L62.768,135.118z M60.786,128.391l3.178,0.489c3.157,0.487,6.94,0.964,6.313,5.046
	c-0.266,1.725-1.643,2.979-3.557,2.942l-0.007,0.042c0.79,0.187,1.13,1.057,1.323,1.755l1.475,6.109l-3.283-0.507l-1.062-4.861
	c-0.253-1.158-0.567-1.638-1.811-1.826l-0.946-0.146l-0.941,6.102l-2.944-0.453L60.786,128.391L60.786,128.391z"/>
<path fill="#FFFFFF" d="M81.112,142.231c3.03-0.305,3.881-3.109,3.609-5.78c-0.262-2.605-1.74-5.153-4.685-4.855
	c-2.944,0.299-3.883,3.09-3.619,5.695C76.688,139.961,78.081,142.54,81.112,142.231L81.112,142.231z M79.8,129.265
	c4.642-0.468,7.564,2.404,8.015,6.874c0.454,4.472-1.787,7.95-6.469,8.423c-4.744,0.479-7.562-2.424-8.023-6.958
	C72.866,133.07,75.097,129.741,79.8,129.265L79.8,129.265z"/>
<polygon fill="#FFFFFF" points="87.511,128.633 90.493,127.487 98.238,137.012 98.279,136.995 97.606,124.753 100.373,123.688 
	101.034,139.358 97.615,140.673 87.511,128.633 "/>
<polygon fill="#FFFFFF" points="101.442,122.783 108.716,117.875 110.026,119.817 105.226,123.059 107.274,126.094 111.669,123.129 
	112.981,125.068 108.585,128.036 110.92,131.494 115.756,128.232 117.065,130.174 109.759,135.105 101.442,122.783 "/>
<path fill="#FFFFFF" d="M121.95,122.641l1.123-1.223c1.684-1.836,1.946-4.863-0.438-7.051c-2.383-2.188-5.379-1.669-7.061,0.166
	l-1.125,1.225L121.95,122.641L121.95,122.641z M110.707,116.371l2.75-2.996c3.082-3.357,6.933-5.287,11.278-1.297
	c4.347,3.985,2.758,7.987-0.324,11.346l-2.748,2.997L110.707,116.371L110.707,116.371z"/>
<path fill="#FFFFFF" d="M148.432,74.82c0,20.657-8.308,39.363-21.738,52.902c-13.431,13.543-31.986,21.918-52.479,21.918
	s-39.048-8.377-52.479-21.918C8.307,114.183,0,95.478,0,74.82s8.307-39.362,21.737-52.902C35.167,8.377,53.723,0,74.215,0
	s39.048,8.377,52.479,21.917S148.432,54.163,148.432,74.82L148.432,74.82z M125.44,126.476
	c13.107-13.216,21.217-31.479,21.217-51.655c0-20.174-8.107-38.438-21.217-51.655C112.33,9.948,94.22,1.774,74.215,1.774
	c-20.004,0-38.115,8.174-51.223,21.392C9.883,36.383,1.773,54.646,1.773,74.82c0,20.176,8.109,38.438,21.218,51.655
	s31.22,21.392,51.224,21.392C94.22,147.867,112.33,139.692,125.44,126.476L125.44,126.476z"/>
<path fill-rule="evenodd" clip-rule="evenodd" fill="#FFFFFF" d="M104.099,110.755c4.656,0,5.082-5.657,2.176-8.232
	c3.183,6.368-6.367,2.899-8.127,2.313c-4.464-1.482-9.605-0.117-14.237-0.759c3.818,4.361,5.865,4.702,11.682,4.622
	C98.593,108.659,101.239,111.103,104.099,110.755L104.099,110.755z"/>
<polygon fill-rule="evenodd" clip-rule="evenodd" fill="#FFFFFF" points="64.498,54.69 65.43,51.894 58.131,52.205 64.498,54.69 "/>
<polygon fill-rule="evenodd" clip-rule="evenodd" fill="#FFFFFF" points="40.986,40.711 43.16,38.537 45.491,40.866 43.316,43.041 
	40.986,40.711 "/>
<polygon fill-rule="evenodd" clip-rule="evenodd" fill="#FFFFFF" points="52.792,40.711 54.964,38.537 57.294,40.866 55.274,43.041 
	52.792,40.711 "/>
<polygon fill-rule="evenodd" clip-rule="evenodd" fill="#FFFFFF" points="59.042,40.711 61.217,38.537 63.546,40.866 61.526,43.041 
	59.042,40.711 "/>
<polygon fill-rule="evenodd" clip-rule="evenodd" fill="#FFFFFF" points="65.291,40.711 67.465,38.537 69.795,40.866 67.775,43.041 
	65.291,40.711 "/>
<polygon fill-rule="evenodd" clip-rule="evenodd" fill="#FFFFFF" points="46.889,40.711 49.061,38.537 51.393,40.866 49.219,43.041 
	46.889,40.711 "/>
<path fill-rule="evenodd" clip-rule="evenodd" fill="#FFFFFF" d="M86.983,92.825c3.87-5.803,10.798-7.993,15.188-13.328
	c2.846-3.467,3.973-20.12,11.838-13.385c0.465-4.153-6.728-4.685-8.778-2.422c-2.664,2.928-2.657,7.301-4.842,10.579
	C95.659,81.388,85.721,82.75,86.983,92.825L86.983,92.825z"/>
<path fill-rule="evenodd" clip-rule="evenodd" fill="#FFFFFF" d="M84.968,83.195c2.797-5.615,8.891-9.201,13.234-13.543
	c3.264-3.266,6.374-18.066,13.944-9.596c0-3.886-5.325-5.815-8.481-5.024c-4.029,1.01-3.629,5.286-5.373,8.128
	c-1.725,2.812-6.702,7.193-9.674,8.658C85.298,73.454,84.968,80.216,84.968,83.195L84.968,83.195z"/>
<path fill-rule="evenodd" clip-rule="evenodd" fill="#FFFFFF" d="M108.263,76.208c2.504,0.146,5.416-3.608,5.28-5.901
	c-0.902,2.575-6.809,3.823-6.366,0.153C106.46,72.138,105.862,75.51,108.263,76.208L108.263,76.208z"/>
<path fill-rule="evenodd" clip-rule="evenodd" fill="#FFFFFF" d="M78.011,71.151c2.405-0.301,4.314-1.197,5.899-2.798
	c-1.637-0.041-4.527,1.56-8.996-0.673c-2.518-1.262-2.484-4.563-0.488-6.202c2.098-1.725,4.972-1.973,7.209-3.479
	c0.524-0.35,1.688-1.82,1.962-2.427c0.271-0.609,0.624-3.299,0.624-4.063c0-0.764-0.173-1.682-0.501-2.372
	c-0.23-0.483-2.892-0.51-3.79-0.503c-3.126,0.02-5.925,0.807-8.766,2.08c-0.334,0.153-0.587,0.398-0.803,0.008
	c-0.247-0.446-0.471-0.91-0.713-1.36c-0.617-1.169-1.483-2.194-2.623-2.877c-0.545-0.328-0.943-0.595-3.963-0.771
	c-3.188-0.188-8.537,0.281-11.539,0.938c-1.84,0.402-5.48,2.744-6.44,3.225c3.909-0.785,16.687-3.081,20.701-0.317
	c1.067,0.737,2.286,1.689,3.22,2.533c0.466,0.417,0.933,1.152,1.374,1.596c0.452,0.445,0.884-0.309,1.388-0.494
	c1.479-0.556,2.749-1.102,4.338-1.102c0.754,0,3.764-0.237,3.567,1.006c-0.354,2.258-2.42,4.451-4.688,4.777
	c-2.58,0.368-4.979,0.821-6.287,3.315c-1.416,2.696-0.643,5.855,1.342,8.014C72.068,71.413,77.557,71.151,78.011,71.151
	L78.011,71.151z"/>
<path fill-rule="evenodd" clip-rule="evenodd" fill="#FFFFFF" d="M111.125,105.905c2.64-8.933,1.596-12.612-11.699-12.691
	c-5.265,0.27-11.434,2.38-16.757,5.736c2.934-27.989-32.179-30.856-40.535-53.113c1.476,28.197,36.993,27.207,39.756,54.199
	c9.405-2.933,16.245-3.151,23.582-2.54c5.222,0.436,4.28,5.92,5.63,8.333L111.125,105.905L111.125,105.905z"/>
<path fill-rule="evenodd" clip-rule="evenodd" fill="#FFFFFF" d="M75.059,65.56c6.389-2.545,12.955,3.603,18.015-4.503
	c-3.875,0.777-6.139,0.987-12.284,0.319C77.32,61.002,74.666,65.812,75.059,65.56L75.059,65.56z"/>
<path fill-rule="evenodd" clip-rule="evenodd" fill="#FFFFFF" d="M76.595,110.154c2.932-27.992-32.675-29.022-40.534-53.115
	c1.479,28.195,36.993,27.205,39.76,54.201L76.595,110.154L76.595,110.154z"/>
<g>
	<path fill="#FFFFFF" d="M109.599,39.29c-9.169-9.196-21.834-14.887-35.821-14.887c-8.061,0-15.677,1.898-22.443,5.261l0.791,1.585
		c6.527-3.24,13.875-5.07,21.652-5.07c13.5,0,25.724,5.488,34.565,14.359c8.846,8.873,14.318,21.135,14.318,34.68
		c0,9.319-2.591,18.031-7.089,25.45l1.388,1.08c2.516-4.111,4.485-8.596,5.759-13.369c1.12-4.197,1.716-8.609,1.716-13.161
		C124.435,61.189,118.765,48.486,109.599,39.29z"/>
	<path fill="#FFFFFF" d="M99.805,116.725c-7.537,4.766-16.458,7.534-26.027,7.534c-13.499,0-25.721-5.488-34.563-14.359
		c-8.845-8.874-14.316-21.136-14.316-34.682c0-11.153,3.716-21.433,9.965-29.67l-1.259-1.263c-6.566,8.57-10.48,19.291-10.48,30.933
		c0,14.029,5.67,26.733,14.836,35.93c9.167,9.195,21.832,14.886,35.818,14.886c9.932,0,19.188-2.88,27.009-7.836L99.805,116.725z"/>
</g>
</svg>
