<?xml version="1.0" encoding="utf-8"?>
<!-- Generator: Adobe Illustrator 16.0.0, SVG Export Plug-In . SVG Version: 6.00 Build 0)  -->
<!DOCTYPE svg PUBLIC "-//W3C//DTD SVG 1.1//EN" "http://www.w3.org/Graphics/SVG/1.1/DTD/svg11.dtd">
<svg version="1.1" id="Layer_1" xmlns="http://www.w3.org/2000/svg" xmlns:xlink="http://www.w3.org/1999/xlink" x="0px" y="0px"
	 width="89.167px" height="89.893px" viewBox="0 0 89.167 89.893" enable-background="new 0 0 89.167 89.893" xml:space="preserve">
<g>
	<path fill="#262635" d="M7.554,33.185c-0.346,0.443-0.614,0.967-0.758,1.522c-0.141,0.547-0.085,1.311,0.777,1.535
		c1.374,0.354,1.692-3.27,4.351-2.581c1.738,0.449,2.041,1.992,1.625,3.593c-0.223,0.864-0.436,1.221-0.831,1.953l-1.393-0.518
		c0.436-0.469,0.791-1.042,0.951-1.666c0.156-0.603,0.06-1.487-0.657-1.673c-1.51-0.39-1.783,3.244-4.407,2.566
		c-1.771-0.459-2.062-1.999-1.699-3.396c0.175-0.682,0.43-1.293,0.773-1.822L7.554,33.185L7.554,33.185z"/>
	<path fill="#262635" d="M10.423,26.86l-0.012,0.021l2.427,2.632l1.122-2.113L10.423,26.86L10.423,26.86z M8.548,26.887l0.87-1.636
		l8.736,1.005L17.3,27.86l-1.986-0.259l-1.558,2.931l1.32,1.511l-0.797,1.503L8.548,26.887L8.548,26.887z"/>
	<polygon fill="#262635" points="12.763,20.152 15.734,16.707 16.71,17.548 14.812,19.752 16.34,21.068 18.147,18.973 
		19.125,19.814 17.316,21.909 20.035,24.253 18.963,25.497 12.763,20.152 	"/>
	<polygon fill="#262635" points="17.934,14.642 21.735,11.662 22.532,12.679 20.021,14.646 21.266,16.232 23.563,14.433 
		24.36,15.447 22.061,17.248 23.478,19.059 26.007,17.076 26.804,18.091 22.982,21.085 17.934,14.642 	"/>
	<path fill="#262635" d="M31.171,13.106c-0.126,1.587-0.443,3.17-1.621,3.77c-0.916,0.468-1.878-0.235-2.527-1.51
		c-1.135-2.222-0.94-4.751,0.01-6.223c0.22-0.358,0.666-1.039,0.998-1.208c0.252-0.13,0.676-0.057,0.893,0.367
		c0.25,0.49,0.193,0.973-0.092,1.119c-0.401,0.203-0.851-0.227-1.205-0.046c-1.154,0.588-0.466,4.006,0.227,5.361
		c0.476,0.93,1.179,1.291,1.854,0.948c0.775-0.396,1.042-1.768,1.154-2.792L31.171,13.106L31.171,13.106z"/>
	<path fill="#262635" d="M36.19,13.738c1.607-0.407,1.496-3.708,1.033-5.54c-0.32-1.262-0.973-2.421-2.042-2.15
		c-1.668,0.424-1.564,3.595-1.068,5.55C34.45,12.931,35.098,14.016,36.19,13.738L36.19,13.738z M35.075,5.584
		c1.444-0.367,2.787,0.958,3.305,3.001c0.638,2.507-0.278,5.161-2.059,5.611c-1.492,0.381-2.812-0.799-3.357-2.95
		C32.313,8.687,33.272,6.041,35.075,5.584L35.075,5.584z"/>
	<path fill="#262635" d="M41.074,6.8c0.481-0.865,1.368-2.323,2.216-2.328c0.308-0.003,0.438,0.271,0.441,0.618
		c0.003,0.312-0.084,0.661-0.134,0.883l-0.644,2.774h0.024c0.605-1.271,2.48-4.313,3.738-4.306c0.399-0.002,0.516,0.345,0.521,0.747
		c0.002,0.295-0.059,0.645-0.121,0.9l-0.994,4.044c-0.112,0.44-0.186,0.734-0.183,0.955c0.001,0.22,0.054,0.384,0.233,0.383
		c0.346-0.003,0.904-0.87,1.093-1.293l0.22,0.237l-0.456,0.81c-0.44,0.793-1.063,1.605-1.771,1.61
		c-0.333,0.003-0.488-0.271-0.492-0.6c-0.003-0.294,0.034-0.606,0.171-1.139l0.968-3.915c0.037-0.166,0.162-0.661,0.159-0.917
		c-0.001-0.24-0.157-0.349-0.297-0.348c-0.719,0.006-1.44,1.242-1.858,1.923c-0.698,1.088-1.239,2.357-1.574,3.755l-0.247,1.046
		c-0.039,0.147-0.32,0.204-0.475,0.208c-0.128,0-0.348-0.107-0.412-0.236l1.212-5.42c0.074-0.349,0.149-0.699,0.146-0.918
		c-0.001-0.184-0.052-0.329-0.207-0.328c-0.27,0.001-0.511,0.297-0.739,0.629l-0.341,0.554L41.074,6.8L41.074,6.8z"/>
	<path fill="#262635" d="M53.124,3.283l1.006,0.195l-0.954,2.169l1.347,0.261L54.23,6.616l-1.337-0.257l-2.104,4.991
		c-0.07,0.154-0.15,0.362-0.185,0.543c-0.041,0.215-0.014,0.407,0.176,0.444c0.492,0.095,1.448-0.859,1.865-1.265l0.118,0.341
		c-0.743,0.791-2.104,2.283-3.022,2.105c-0.365-0.072-0.464-0.576-0.374-1.045c0.069-0.359,0.265-0.825,0.387-1.12l2.169-5.185
		l-1.235-0.238l0.291-0.708l1.225,0.235L53.124,3.283L53.124,3.283z"/>
	<path fill="#262635" d="M56.114,8.638c0.542-0.521,2.097-1.832,2.687-1.607c0.3,0.113,0.421,0.376,0.244,0.838
		c-0.073,0.189-0.244,0.496-0.461,0.846l-1.348,2.175l0.023,0.009c0.657-0.75,2.932-3.338,3.688-3.049
		c0.252,0.095,0.294,0.347,0.15,0.723c-0.15,0.395-0.614,1.219-0.986,1.076c-0.145-0.054-0.274-0.183-0.418-0.238
		c-0.828-0.314-2.945,2.687-4.006,4.283l-0.635,1.016c-0.069,0.111-0.268,0.055-0.483-0.027c-0.156-0.06-0.326-0.301-0.267-0.454
		c0.02-0.053,0.052-0.099,0.082-0.146l2.75-4.37c0.163-0.251,0.431-0.698,0.526-0.956c0.073-0.188,0.099-0.473-0.056-0.531
		c-0.325-0.125-1.124,0.495-1.446,0.765L56.114,8.638L56.114,8.638z"/>
	<path fill="#262635" d="M61.148,16.147c1.049,0.669,4.469-1.745,5.345-3.12c0.246-0.388,0.241-0.955-0.042-1.134
		c-1.168-0.744-4.203,1.302-5.176,2.835C60.939,15.255,60.725,15.878,61.148,16.147L61.148,16.147z M68.044,11.903
		c0.112-0.081,0.305-0.24,0.435-0.158l0.227,0.146c0.066,0.041,0.077,0.092,0.05,0.138c-0.021,0.031-0.053,0.057-0.102,0.111
		l-4.564,4.812c-0.122,0.119-0.19,0.205-0.289,0.359c-0.068,0.107-0.104,0.237-0.007,0.3c0.313,0.199,1.008-0.272,1.381-0.403
		l0.046,0.312c-0.827,0.364-2.33,1.342-3.013,0.908c-0.164-0.102-0.289-0.357-0.093-0.668c0.168-0.264,0.53-0.641,0.902-1.012
		l1.21-1.208l-0.023-0.016l-0.03,0.025l0.022,0.013l0.008-0.038c-1.309,0.841-3.446,1.981-4.313,1.431
		c-0.661-0.422-0.361-1.251-0.007-1.809c1.563-2.46,5.938-4.678,7.337-3.79c0.27,0.172,0.382,0.548,0.357,0.945L68.044,11.903
		L68.044,11.903z"/>
	<path fill="#262635" d="M70.507,22.119c-1.547,0.382-3.147,0.583-4.092-0.344c-0.731-0.72-0.369-1.856,0.632-2.877
		c1.749-1.778,4.206-2.395,5.906-1.96c0.41,0.093,1.196,0.301,1.462,0.562c0.201,0.198,0.269,0.624-0.065,0.964
		c-0.386,0.393-0.86,0.492-1.089,0.268c-0.322-0.314-0.058-0.879-0.342-1.156c-0.923-0.909-3.944,0.826-5.01,1.913
		c-0.733,0.745-0.854,1.527-0.314,2.058c0.623,0.611,2.008,0.43,3.015,0.212L70.507,22.119L70.507,22.119z"/>
	<path fill="#262635" d="M79.609,20.829l0.592,0.84l-2.192,0.9l0.791,1.122l-0.704,0.308l-0.783-1.112l-4.975,2.142
		c-0.158,0.062-0.36,0.156-0.512,0.263c-0.178,0.127-0.291,0.285-0.182,0.441c0.29,0.411,1.641,0.385,2.222,0.383l-0.15,0.326
		c-1.084,0.056-3.098,0.19-3.639-0.576c-0.213-0.307,0.066-0.737,0.456-1.012c0.299-0.212,0.763-0.412,1.055-0.54l5.156-2.234
		l-0.725-1.028l0.702-0.308l0.718,1.018L79.609,20.829L79.609,20.829z"/>
	<path fill="#262635" d="M74.031,31.636c0.662,1.518,3.904,0.874,5.635,0.118c1.194-0.52,2.232-1.352,1.788-2.364
		c-0.686-1.576-3.8-0.96-5.647-0.153C74.546,29.786,73.58,30.601,74.031,31.636L74.031,31.636z M81.898,29.211
		c0.595,1.365-0.494,2.905-2.426,3.749c-2.371,1.033-5.139,0.561-5.873-1.121c-0.615-1.411,0.334-2.904,2.367-3.793
		C78.388,26.989,81.153,27.505,81.898,29.211L81.898,29.211z"/>
	<path fill="#262635" d="M81.439,35.307c0.729,0.181,2.668,0.798,2.792,1.415c0.062,0.313-0.096,0.555-0.579,0.652
		c-0.197,0.041-0.549,0.058-0.961,0.062l-2.559,0.019l0.004,0.025c0.985,0.153,4.387,0.7,4.549,1.493
		c0.054,0.264-0.139,0.434-0.534,0.514c-0.412,0.083-1.356,0.128-1.437-0.261c-0.029-0.151,0.008-0.329-0.021-0.48
		c-0.175-0.868-3.842-1.059-5.76-1.105l-1.196,0.006c-0.132,0-0.19-0.198-0.234-0.424c-0.035-0.163,0.079-0.436,0.24-0.467
		c0.057-0.013,0.11-0.011,0.168-0.009l5.162-0.005c0.299,0.005,0.822-0.009,1.092-0.064c0.197-0.04,0.451-0.168,0.418-0.332
		c-0.067-0.34-1.017-0.686-1.415-0.814L81.439,35.307L81.439,35.307z"/>
	<path fill="#262635" d="M19.285,68.871l-0.018-0.02l-3.561,1.599l1.794,1.894L19.285,68.871L19.285,68.871z M19.908,66.925
		l1.391,1.466l-4.069,8.688l-1.364-1.438l0.959-1.965l-2.492-2.628L12.31,71.89l-1.274-1.346L19.908,66.925L19.908,66.925z"/>
	<path fill="#262635" d="M23.575,75.615l0.525,0.343c0.75,0.489,1.586,0.683,2.151-0.185c0.566-0.868,0.109-1.595-0.662-2.098
		l-0.524-0.342L23.575,75.615L23.575,75.615z M24.334,71.177l1.895,1.236c1.63,1.062,2.812,2.507,1.645,4.295
		c-1.139,1.746-2.827,1.547-4.432,0.5l-0.634-0.414l-1.853,2.84l-1.499-0.978L24.334,71.177L24.334,71.177z"/>
	<path fill="#262635" d="M30.305,79.277l0.583,0.227c0.836,0.325,1.693,0.343,2.069-0.622c0.375-0.968-0.222-1.584-1.081-1.918
		l-0.584-0.227L30.305,79.277L30.305,79.277z M30.133,74.776l2.11,0.82c1.812,0.705,3.266,1.873,2.491,3.865
		c-0.755,1.943-2.447,2.096-4.235,1.4l-0.704-0.273l-1.229,3.159l-1.669-0.647L30.133,74.776L30.133,74.776z"/>
	<path fill="#262635" d="M37.706,81.169l0.583,0.088c0.87,0.135,1.891,0.162,2.06-0.938c0.161-1.062-0.81-1.303-1.694-1.438
		l-0.583-0.089L37.706,81.169L37.706,81.169z M36.517,77.127l1.909,0.294c1.896,0.293,4.169,0.579,3.793,3.031
		c-0.161,1.036-0.988,1.789-2.138,1.768l-0.004,0.025c0.476,0.112,0.679,0.635,0.796,1.055l0.885,3.67l-1.972-0.305l-0.638-2.921
		c-0.151-0.695-0.341-0.983-1.088-1.097l-0.568-0.088l-0.565,3.665l-1.769-0.272L36.517,77.127L36.517,77.127z"/>
	<path fill="#262635" d="M48.727,85.441c1.82-0.183,2.332-1.868,2.168-3.472c-0.156-1.565-1.045-3.096-2.813-2.917
		c-1.769,0.18-2.333,1.856-2.174,3.421C46.068,84.078,46.906,85.627,48.727,85.441L48.727,85.441z M47.938,77.652
		c2.788-0.281,4.544,1.444,4.814,4.129c0.272,2.687-1.073,4.776-3.886,5.061c-2.851,0.288-4.544-1.456-4.82-4.181
		C43.773,79.938,45.113,77.938,47.938,77.652L47.938,77.652z"/>
	<polygon fill="#262635" points="52.57,77.272 54.362,76.585 59.015,82.306 59.039,82.296 58.635,74.942 60.297,74.303 
		60.694,83.716 58.641,84.505 52.57,77.272 	"/>
	<polygon fill="#262635" points="60.939,73.759 65.309,70.811 66.096,71.978 63.212,73.924 64.443,75.747 67.083,73.966 
		67.871,75.132 65.23,76.914 66.633,78.991 69.538,77.032 70.324,78.198 65.936,81.161 60.939,73.759 	"/>
	<path fill="#262635" d="M73.259,73.673l0.675-0.734c1.012-1.103,1.169-2.922-0.264-4.235c-1.431-1.314-3.23-1.003-4.241,0.1
		l-0.676,0.735L73.259,73.673L73.259,73.673z M66.505,69.907l1.652-1.801c1.852-2.017,4.164-3.176,6.774-0.778
		c2.611,2.394,1.657,4.798-0.194,6.815l-1.65,1.801L66.505,69.907L66.505,69.907z"/>
	<path fill="#262635" d="M89.167,44.946c0,12.409-4.99,23.646-13.059,31.779c-8.068,8.136-19.215,13.167-31.525,13.167
		S21.126,84.86,13.059,76.726C4.99,68.592,0,57.355,0,44.946s4.99-23.646,13.059-31.779C21.126,5.032,32.272,0,44.583,0
		S68.04,5.032,76.108,13.166S89.167,32.537,89.167,44.946L89.167,44.946z M75.355,75.977c7.874-7.938,12.746-18.91,12.746-31.03
		c0-12.119-4.871-23.091-12.746-31.03C67.48,5.976,56.601,1.065,44.583,1.065c-12.017,0-22.896,4.91-30.771,12.851
		c-7.876,7.94-12.746,18.911-12.746,31.03c0,12.12,4.872,23.091,12.746,31.03c7.874,7.94,18.754,12.851,30.771,12.851
		C56.601,88.827,67.48,83.917,75.355,75.977L75.355,75.977z"/>
	<path fill-rule="evenodd" clip-rule="evenodd" fill="#262635" d="M62.535,66.533c2.797,0,3.053-3.398,1.307-4.945
		c1.912,3.825-3.824,1.741-4.882,1.39c-2.682-0.891-5.771-0.07-8.553-0.456c2.294,2.62,3.523,2.825,7.018,2.776
		C59.228,65.274,60.817,66.742,62.535,66.533L62.535,66.533z"/>
	<polygon fill-rule="evenodd" clip-rule="evenodd" fill="#262635" points="38.746,32.854 39.307,31.174 34.921,31.36 38.746,32.854 
			"/>
	<polygon fill-rule="evenodd" clip-rule="evenodd" fill="#262635" points="24.621,24.456 25.928,23.15 27.328,24.55 26.021,25.855 
		24.621,24.456 	"/>
	<polygon fill-rule="evenodd" clip-rule="evenodd" fill="#262635" points="31.714,24.456 33.019,23.15 34.419,24.55 33.205,25.855 
		31.714,24.456 	"/>
	<polygon fill-rule="evenodd" clip-rule="evenodd" fill="#262635" points="35.469,24.456 36.774,23.15 38.174,24.55 36.961,25.855 
		35.469,24.456 	"/>
	<polygon fill-rule="evenodd" clip-rule="evenodd" fill="#262635" points="39.222,24.456 40.529,23.15 41.928,24.55 40.715,25.855 
		39.222,24.456 	"/>
	<polygon fill-rule="evenodd" clip-rule="evenodd" fill="#262635" points="28.168,24.456 29.473,23.15 30.874,24.55 29.567,25.855 
		28.168,24.456 	"/>
	<path fill-rule="evenodd" clip-rule="evenodd" fill="#262635" d="M52.254,55.763c2.324-3.486,6.486-4.802,9.123-8.007
		c1.71-2.083,2.387-12.087,7.111-8.041c0.279-2.495-4.041-2.813-5.273-1.454c-1.6,1.758-1.596,4.385-2.908,6.354
		C57.466,48.892,51.495,49.71,52.254,55.763L52.254,55.763z"/>
	<path fill-rule="evenodd" clip-rule="evenodd" fill="#262635" d="M51.043,49.978c1.68-3.373,5.341-5.527,7.95-8.136
		c1.96-1.962,3.829-10.853,8.377-5.765c0-2.334-3.199-3.493-5.096-3.018c-2.42,0.606-2.18,3.175-3.228,4.882
		c-1.036,1.689-4.026,4.321-5.812,5.201C51.241,44.126,51.043,48.188,51.043,49.978L51.043,49.978z"/>
	<path fill-rule="evenodd" clip-rule="evenodd" fill="#262635" d="M65.037,45.78c1.504,0.087,3.253-2.168,3.172-3.545
		c-0.542,1.547-4.091,2.296-3.824,0.092C63.954,43.335,63.595,45.36,65.037,45.78L65.037,45.78z"/>
	<path fill-rule="evenodd" clip-rule="evenodd" fill="#262635" d="M46.863,42.742c1.445-0.181,2.592-0.72,3.544-1.681
		c-0.983-0.024-2.72,0.937-5.403-0.404c-1.514-0.758-1.493-2.741-0.293-3.726c1.259-1.036,2.985-1.185,4.33-2.091
		c0.314-0.209,1.014-1.093,1.178-1.457c0.163-0.366,0.375-1.982,0.375-2.441s-0.104-1.01-0.301-1.425
		c-0.139-0.29-1.737-0.307-2.276-0.302c-1.878,0.012-3.56,0.484-5.266,1.249c-0.201,0.093-0.353,0.239-0.482,0.005
		c-0.148-0.268-0.283-0.547-0.428-0.817c-0.372-0.702-0.892-1.318-1.576-1.729c-0.328-0.196-0.567-0.356-2.382-0.463
		c-1.914-0.112-5.128,0.169-6.93,0.563c-1.105,0.241-3.294,1.648-3.87,1.937c2.349-0.472,10.023-1.851,12.436-0.19
		c0.641,0.443,1.374,1.015,1.935,1.521c0.279,0.251,0.561,0.692,0.825,0.959c0.271,0.268,0.53-0.186,0.833-0.297
		c0.889-0.334,1.652-0.662,2.605-0.662c0.454,0,2.262-0.143,2.145,0.604c-0.213,1.356-1.454,2.674-2.817,2.87
		c-1.55,0.221-2.991,0.493-3.775,1.991c-0.851,1.62-0.387,3.518,0.805,4.814C43.293,42.899,46.591,42.742,46.863,42.742
		L46.863,42.742z"/>
	<path fill-rule="evenodd" clip-rule="evenodd" fill="#262635" d="M66.756,63.62c1.586-5.366,0.959-7.577-7.027-7.624
		c-3.163,0.161-6.869,1.429-10.066,3.445c1.762-16.813-19.331-18.536-24.351-31.906c0.887,16.938,22.223,16.344,23.882,32.559
		c5.65-1.762,9.759-1.893,14.167-1.525c3.137,0.262,2.571,3.556,3.382,5.006L66.756,63.62L66.756,63.62z"/>
	<path fill-rule="evenodd" clip-rule="evenodd" fill="#262635" d="M45.09,39.383c3.838-1.528,7.783,2.164,10.822-2.705
		c-2.328,0.468-3.688,0.594-7.38,0.192C46.449,36.646,44.854,39.534,45.09,39.383L45.09,39.383z"/>
	<path fill-rule="evenodd" clip-rule="evenodd" fill="#262635" d="M46.013,66.172c1.762-16.815-19.628-17.435-24.351-31.907
		c0.89,16.938,22.224,16.343,23.886,32.56L46.013,66.172L46.013,66.172z"/>
	<g>
		<path fill="#262635" d="M65.839,23.603c-5.508-5.524-13.116-8.943-21.519-8.943c-4.842,0-9.417,1.141-13.481,3.16l0.475,0.953
			c3.921-1.947,8.335-3.047,13.007-3.047c8.11,0,15.453,3.298,20.765,8.627c5.313,5.33,8.602,12.695,8.602,20.832
			c0,5.599-1.557,10.832-4.259,15.289l0.834,0.648c1.511-2.47,2.694-5.163,3.459-8.031c0.673-2.521,1.031-5.172,1.031-7.906
			C74.752,36.758,71.346,29.127,65.839,23.603z"/>
		<path fill="#262635" d="M59.956,70.119c-4.528,2.862-9.887,4.526-15.636,4.526c-8.109,0-15.45-3.297-20.763-8.627
			c-5.314-5.33-8.601-12.696-8.601-20.834c0-6.699,2.233-12.875,5.986-17.823l-0.756-0.759c-3.945,5.148-6.296,11.589-6.296,18.582
			c0,8.428,3.405,16.06,8.912,21.584s13.114,8.942,21.517,8.942c5.967,0,11.527-1.729,16.225-4.707L59.956,70.119z"/>
	</g>
</g>
</svg>
