<?xml version="1.0" encoding="utf-8"?>
<!-- Generator: Adobe Illustrator 16.0.0, SVG Export Plug-In . SVG Version: 6.00 Build 0)  -->
<!DOCTYPE svg PUBLIC "-//W3C//DTD SVG 1.1//EN" "http://www.w3.org/Graphics/SVG/1.1/DTD/svg11.dtd">
<svg version="1.1" id="Layer_1" xmlns="http://www.w3.org/2000/svg" xmlns:xlink="http://www.w3.org/1999/xlink" x="0px" y="0px"
	 width="173.394px" height="104.122px" viewBox="0 0 173.394 104.122" enable-background="new 0 0 173.394 104.122"
	 xml:space="preserve">
<g>
	<g>
		<path fill="#FFFFFF" d="M0,75.287V2.059h28.386c11.725,0,20.74,2.848,27.049,8.538c6.855,6.17,10.286,15.528,10.286,28.076
			c0,12.55-3.431,21.911-10.286,28.078c-6.309,5.693-15.324,8.537-27.049,8.537H0z M18.307,17.487v42.37h10.49
			c6.24,0,10.904-1.764,13.989-5.289c3.085-3.537,4.627-8.829,4.627-15.896c0-7.059-1.56-12.358-4.681-15.889
			c-3.121-3.531-7.799-5.296-14.038-5.296H18.307z"/>
		<path fill="#FFFFFF" d="M57.577,75.287V2.059h35.791c8.297,0,14.501,1.562,18.615,4.68c4.112,3.124,6.171,7.834,6.171,14.143
			c0,4.319-1.269,7.883-3.806,10.697c-2.535,2.81-6.375,4.828-11.517,6.066c5.347,0.411,9.596,1.958,12.751,4.629
			c3.497,2.949,5.246,6.989,5.246,12.132c0,6.93-2.487,12.138-7.457,15.642c-4.97,3.49-12.463,5.24-22.473,5.24H57.577z
			 M75.062,15.638v15.216h15.224c3.221,0,5.62-0.632,7.198-1.899c1.577-1.263,2.364-3.171,2.364-5.708
			c0-2.95-0.821-5.007-2.466-6.174c-1.442-0.954-3.807-1.435-7.097-1.435H75.062z M75.268,44.432v17.275h14.914
			c4.113,0,7.2-0.715,9.254-2.158c2.059-1.438,3.086-3.559,3.086-6.373c0-3.088-0.667-5.312-2.007-6.684
			c-1.334-1.375-3.684-2.06-7.045-2.06H75.268z"/>
		<path fill="#FFFFFF" d="M106.75,62.432l13.986-9.051c6.789,6.103,13.852,9.151,21.186,9.151c3.156,0,6.035-0.614,8.642-1.85
			c3.356-1.576,5.038-3.771,5.038-6.585c0-3.428-2.744-5.587-8.227-6.477l-15.222-2.467c-13.988-2.264-20.98-8.984-20.98-20.157
			c0-8.295,3.052-14.672,9.156-19.133C125.677,1.958,132.599,0,141.103,0c13.095,0,23.857,4.701,32.291,14.091L159.56,24.128
			c-5.082-6.208-11.64-9.313-19.674-9.313c-2.404,0-4.671,0.654-6.8,1.952c-2.403,1.441-3.605,3.259-3.605,5.451
			c0,3.566,3.396,5.894,10.183,6.995l6.992,1.129c8.434,1.377,14.709,3.396,18.819,6.065c5.211,3.438,7.817,8.369,7.817,14.816
			c0,9.803-3.873,16.903-11.62,21.288c-5.693,3.219-12.992,4.836-21.906,4.836C126.874,77.346,115.868,72.373,106.75,62.432z"/>
	</g>
	<g>
		<g>
			<path fill="#FFFFFF" d="M10.915,98.664l1.923,0.484c-0.404,1.58-1.129,2.781-2.174,3.611c-1.048,0.83-2.327,1.244-3.838,1.244
				c-1.567,0-2.839-0.319-3.82-0.957c-0.98-0.635-1.726-1.559-2.239-2.768C0.256,99.071,0,97.771,0,96.385
				c0-1.512,0.289-2.828,0.867-3.955c0.578-1.125,1.4-1.982,2.466-2.564c1.067-0.584,2.241-0.877,3.522-0.877
				c1.452,0,2.675,0.367,3.665,1.107c0.99,0.742,1.681,1.781,2.07,3.121l-1.893,0.445c-0.336-1.056-0.825-1.825-1.466-2.307
				c-0.64-0.482-1.445-0.723-2.416-0.723c-1.117,0-2.05,0.265-2.799,0.8c-0.75,0.536-1.276,1.255-1.58,2.153
				c-0.304,0.904-0.456,1.832-0.456,2.792c0,1.233,0.18,2.312,0.541,3.231c0.358,0.924,0.918,1.608,1.679,2.066
				c0.758,0.454,1.581,0.682,2.466,0.682c1.076,0,1.987-0.31,2.733-0.93C10.147,100.809,10.651,99.887,10.915,98.664z"/>
			<path fill="#FFFFFF" d="M16.649,96.686c0-2.412,0.647-4.299,1.941-5.663c1.295-1.362,2.965-2.044,5.013-2.044
				c1.341,0,2.549,0.316,3.625,0.959c1.077,0.641,1.897,1.535,2.462,2.68c0.564,1.146,0.847,2.445,0.847,3.898
				c0,1.471-0.297,2.789-0.891,3.95c-0.594,1.165-1.437,2.044-2.526,2.642c-1.089,0.598-2.266,0.896-3.526,0.896
				c-1.368,0-2.588-0.33-3.665-0.988c-1.077-0.663-1.892-1.564-2.446-2.707C16.927,99.166,16.649,97.957,16.649,96.686z
				 M18.631,96.713c0,1.748,0.47,3.128,1.41,4.135c0.941,1.01,2.122,1.51,3.542,1.51c1.446,0,2.635-0.508,3.57-1.521
				c0.935-1.02,1.401-2.461,1.401-4.331c0-1.183-0.2-2.214-0.599-3.096c-0.399-0.88-0.985-1.564-1.753-2.05
				c-0.771-0.484-1.633-0.727-2.59-0.727c-1.36,0-2.531,0.465-3.512,1.401C19.12,92.967,18.631,94.528,18.631,96.713z"/>
			<path fill="#FFFFFF" d="M34.916,89.311h1.928l7.648,11.402h0.041V89.311h1.784v14.447h-1.906l-7.668-11.383h-0.041v11.383h-1.786
				V89.311z"/>
			<path fill="#FFFFFF" d="M54.472,90.975h-4.341v-1.664H60.72v1.664h-4.341v12.783h-1.907V90.975z"/>
			<path fill="#FFFFFF" d="M64.533,89.311h6.534c0.567,0,1.129,0.064,1.683,0.195c0.555,0.127,1.052,0.348,1.492,0.66
				c0.439,0.309,0.794,0.731,1.065,1.267c0.269,0.534,0.405,1.214,0.405,2.038c0,0.461-0.057,0.91-0.172,1.35
				c-0.116,0.44-0.301,0.84-0.558,1.207c-0.257,0.365-0.603,0.678-1.034,0.943c-0.433,0.264-0.961,0.441-1.583,0.536l3.977,6.251
				h-2.312l-3.896-6.129h-3.691v6.129h-1.908V89.311z M66.441,95.965h4.321c0.446,0,0.855-0.039,1.227-0.119
				c0.372-0.083,0.692-0.218,0.963-0.408c0.272-0.189,0.481-0.441,0.629-0.762c0.149-0.314,0.224-0.72,0.224-1.205
				c0-0.475-0.075-0.869-0.224-1.186c-0.148-0.318-0.357-0.576-0.629-0.771c-0.271-0.197-0.592-0.337-0.963-0.417
				c-0.372-0.083-0.781-0.123-1.227-0.123h-4.321V95.965z"/>
			<path fill="#FFFFFF" d="M84.354,89.311h2.028l5.234,14.447h-2.049l-1.542-4.424h-5.476l-1.664,4.424h-2.05L84.354,89.311z
				 M85.368,91.685h-0.041l-2.188,5.985h4.298L85.368,91.685z"/>
			<path fill="#FFFFFF" d="M105.753,98.664l1.921,0.484c-0.401,1.58-1.126,2.781-2.174,3.611c-1.045,0.83-2.325,1.244-3.838,1.244
				c-1.564,0-2.839-0.319-3.818-0.957c-0.979-0.635-1.727-1.559-2.239-2.768c-0.51-1.208-0.768-2.508-0.768-3.895
				c0-1.512,0.289-2.828,0.867-3.955c0.578-1.125,1.4-1.982,2.467-2.564c1.066-0.584,2.239-0.877,3.521-0.877
				c1.451,0,2.674,0.367,3.665,1.107c0.99,0.742,1.682,1.781,2.07,3.121l-1.892,0.445c-0.338-1.056-0.825-1.825-1.468-2.307
				c-0.64-0.482-1.444-0.723-2.416-0.723c-1.116,0-2.049,0.265-2.799,0.8c-0.75,0.536-1.276,1.255-1.579,2.153
				c-0.305,0.904-0.455,1.832-0.455,2.792c0,1.233,0.179,2.312,0.539,3.231c0.359,0.924,0.92,1.608,1.68,2.066
				c0.758,0.454,1.582,0.682,2.465,0.682c1.076,0,1.988-0.31,2.734-0.93C104.983,100.809,105.488,99.887,105.753,98.664z"/>
			<path fill="#FFFFFF" d="M115.192,90.975h-4.342v-1.664h10.591v1.664h-4.341v12.783h-1.908V90.975z"/>
			<path fill="#FFFFFF" d="M134.342,93.554c-0.026-0.529-0.142-0.984-0.347-1.372c-0.199-0.385-0.472-0.702-0.81-0.951
				c-0.338-0.25-0.728-0.438-1.166-0.558c-0.44-0.122-0.908-0.183-1.41-0.183c-0.339,0-0.697,0.033-1.074,0.1
				c-0.38,0.068-0.729,0.183-1.045,0.346c-0.316,0.162-0.583,0.385-0.792,0.669c-0.21,0.285-0.314,0.635-0.314,1.055
				c0,0.472,0.132,0.854,0.396,1.147c0.265,0.289,0.608,0.527,1.036,0.709c0.425,0.18,0.915,0.33,1.471,0.447
				c0.552,0.115,1.116,0.237,1.683,0.363c0.567,0.129,1.129,0.284,1.685,0.467c0.553,0.183,1.045,0.435,1.47,0.752
				c0.427,0.317,0.771,0.723,1.034,1.217c0.266,0.492,0.396,1.117,0.396,1.877c0,0.77-0.162,1.438-0.487,1.996
				c-0.323,0.562-0.747,1.025-1.268,1.391c-0.52,0.364-1.111,0.639-1.774,0.822c-0.662,0.182-1.339,0.274-2.027,0.274
				c-0.853,0-1.655-0.093-2.405-0.274c-0.75-0.184-1.409-0.473-1.977-0.873c-0.568-0.397-1.032-0.92-1.39-1.562
				c-0.36-0.643-0.566-1.425-0.62-2.344l2.07-0.183c0.053,1.312,0.459,2.256,1.216,2.828c0.759,0.578,1.765,0.865,3.024,0.865
				c0.459,0,0.901-0.055,1.326-0.165c0.428-0.107,0.808-0.274,1.137-0.505c0.333-0.23,0.598-0.527,0.802-0.895
				c0.204-0.362,0.305-0.805,0.305-1.316c0-0.5-0.132-0.902-0.396-1.207c-0.263-0.305-0.608-0.556-1.034-0.752
				c-0.425-0.195-0.916-0.354-1.47-0.476c-0.555-0.122-1.115-0.242-1.684-0.364c-0.568-0.123-1.13-0.263-1.685-0.428
				c-0.555-0.162-1.045-0.385-1.47-0.67c-0.427-0.282-0.772-0.64-1.037-1.074c-0.261-0.433-0.395-0.987-0.395-1.662
				c0-0.702,0.152-1.312,0.457-1.826c0.306-0.516,0.704-0.939,1.196-1.277c0.494-0.34,1.05-0.592,1.665-0.762
				c0.613-0.17,1.232-0.252,1.854-0.252c0.742,0,1.448,0.086,2.11,0.262c0.662,0.175,1.251,0.447,1.766,0.812
				c0.512,0.361,0.939,0.829,1.278,1.398c0.335,0.57,0.561,1.245,0.668,2.029L134.342,93.554z"/>
			<g>
				<path fill="#FFFFFF" d="M144.517,89.311h0.975v6.532h3.679v0.848h-4.653V89.311z"/>
				<path fill="#FFFFFF" d="M151.823,90.16h-2.218v-0.85h5.409v0.85h-2.218v6.53h-0.974V90.16z"/>
				<path fill="#FFFFFF" d="M156.964,89.311h2.788c0.56,0,1.045,0.093,1.455,0.27c0.412,0.181,0.751,0.436,1.021,0.763
					c0.271,0.33,0.468,0.722,0.597,1.183c0.127,0.459,0.19,0.964,0.19,1.52c0,0.523-0.067,1.009-0.202,1.456
					c-0.134,0.444-0.337,0.829-0.605,1.151c-0.27,0.326-0.607,0.58-1.017,0.763c-0.407,0.185-0.887,0.275-1.439,0.275h-2.788V89.311
					z M157.937,95.843h1.648c0.436,0,0.807-0.072,1.11-0.215c0.305-0.14,0.549-0.337,0.736-0.59
					c0.186-0.252,0.319-0.558,0.404-0.912c0.081-0.357,0.122-0.749,0.122-1.175c0-0.422-0.041-0.805-0.13-1.146
					c-0.086-0.343-0.22-0.633-0.403-0.875c-0.183-0.242-0.418-0.432-0.709-0.566c-0.292-0.133-0.641-0.203-1.048-0.203h-1.731
					V95.843z"/>
			</g>
		</g>
		<rect x="144.517" y="99.162" fill="#FFFFFF" width="17.812" height="0.396"/>
	</g>
</g>
</svg>
