<?xml version="1.0" encoding="utf-8"?>
<!-- Generator: Adobe Illustrator 16.0.0, SVG Export Plug-In . SVG Version: 6.00 Build 0)  -->
<!DOCTYPE svg PUBLIC "-//W3C//DTD SVG 1.1//EN" "http://www.w3.org/Graphics/SVG/1.1/DTD/svg11.dtd">
<svg version="1.1" id="Layer_1" xmlns="http://www.w3.org/2000/svg" xmlns:xlink="http://www.w3.org/1999/xlink" x="0px" y="0px"
	 width="93.635px" height="15.666px" viewBox="0 0 93.635 15.666" enable-background="new 0 0 93.635 15.666" xml:space="preserve">
<g>
	<g>
		<path fill="#FF6352" d="M26.154,7.715h4.854v6.943c-0.755,0.24-1.523,0.424-2.305,0.547s-1.687,0.186-2.715,0.186
			c-2.161,0-3.845-0.643-5.049-1.928c-1.204-1.287-1.807-3.088-1.807-5.406c0-1.484,0.298-2.785,0.894-3.9
			c0.596-1.117,1.453-1.971,2.573-2.559c1.12-0.59,2.432-0.885,3.936-0.885c1.523,0,2.942,0.279,4.258,0.84l-0.645,1.465
			c-1.289-0.547-2.529-0.82-3.721-0.82c-1.738,0-3.096,0.518-4.072,1.553s-1.465,2.471-1.465,4.307c0,1.928,0.471,3.389,1.411,4.385
			s2.322,1.494,4.146,1.494c0.989,0,1.956-0.113,2.9-0.342V9.199h-3.193V7.715z"/>
		<path fill="#FF6352" d="M43.43,9.834c0,1.744-0.439,3.107-1.318,4.088c-0.879,0.979-2.093,1.469-3.643,1.469
			c-0.957,0-1.807-0.225-2.549-0.674s-1.315-1.094-1.719-1.934s-0.605-1.822-0.605-2.949c0-1.744,0.437-3.104,1.309-4.076
			c0.872-0.975,2.083-1.461,3.633-1.461c1.497,0,2.688,0.498,3.569,1.494S43.43,8.135,43.43,9.834z M35.275,9.834
			c0,1.367,0.273,2.408,0.82,3.125s1.351,1.074,2.412,1.074s1.867-0.355,2.417-1.068s0.825-1.758,0.825-3.131
			c0-1.361-0.275-2.395-0.825-3.1c-0.55-0.707-1.362-1.061-2.437-1.061c-1.062,0-1.862,0.348-2.402,1.045S35.275,8.453,35.275,9.834
			z"/>
		<path fill="#FF6352" d="M51.711,0.918h4.033c1.895,0,3.265,0.283,4.111,0.85s1.27,1.461,1.27,2.686
			c0,0.846-0.236,1.545-0.708,2.096c-0.472,0.549-1.16,0.906-2.065,1.068v0.098c2.168,0.371,3.252,1.51,3.252,3.418
			c0,1.275-0.432,2.271-1.294,2.988s-2.068,1.074-3.618,1.074h-4.98V0.918z M53.371,7.031h2.734c1.172,0,2.015-0.184,2.529-0.551
			c0.515-0.369,0.771-0.988,0.771-1.861c0-0.801-0.286-1.379-0.859-1.732c-0.573-0.355-1.484-0.533-2.734-0.533h-2.441V7.031z
			 M53.371,8.438v5.342h2.979c1.152,0,2.02-0.223,2.603-0.668c0.583-0.447,0.874-1.145,0.874-2.096c0-0.885-0.298-1.537-0.894-1.953
			s-1.502-0.625-2.72-0.625H53.371z"/>
		<path fill="#FF6352" d="M71.008,15.195l-0.322-1.523h-0.078c-0.534,0.67-1.066,1.125-1.597,1.363
			c-0.53,0.236-1.193,0.355-1.987,0.355c-1.062,0-1.893-0.273-2.495-0.82s-0.903-1.324-0.903-2.334c0-2.162,1.729-3.295,5.186-3.398
			l1.816-0.059V8.115c0-0.84-0.181-1.459-0.542-1.859s-0.939-0.602-1.733-0.602c-0.892,0-1.901,0.273-3.027,0.82l-0.498-1.24
			c0.527-0.287,1.105-0.512,1.733-0.674s1.258-0.244,1.89-0.244c1.276,0,2.222,0.283,2.837,0.85s0.923,1.475,0.923,2.725v7.305
			H71.008z M67.346,14.053c1.009,0,1.802-0.277,2.378-0.83s0.864-1.328,0.864-2.324V9.932L68.967,10
			c-1.289,0.045-2.219,0.246-2.788,0.602c-0.569,0.354-0.854,0.906-0.854,1.654c0,0.586,0.178,1.031,0.532,1.338
			S66.708,14.053,67.346,14.053z"/>
		<path fill="#FF6352" d="M79.826,15.391c-1.55,0-2.749-0.477-3.599-1.43c-0.85-0.955-1.274-2.305-1.274-4.049
			c0-1.791,0.432-3.174,1.294-4.15s2.092-1.465,3.687-1.465c0.515,0,1.028,0.055,1.543,0.166s0.918,0.24,1.211,0.391L82.189,6.23
			c-0.358-0.143-0.749-0.262-1.172-0.355c-0.423-0.096-0.798-0.143-1.123-0.143c-2.175,0-3.262,1.387-3.262,4.16
			c0,1.314,0.266,2.324,0.796,3.027s1.316,1.055,2.358,1.055c0.892,0,1.807-0.191,2.744-0.576v1.436
			C81.815,15.205,80.913,15.391,79.826,15.391z"/>
		<path fill="#FF6352" d="M86.672,9.717c0.28-0.396,0.706-0.918,1.279-1.562l3.457-3.662h1.924l-4.336,4.561l4.639,6.143h-1.963
			l-3.779-5.059l-1.221,1.055v4.004H85.07V0h1.602v8.057c0,0.357-0.026,0.912-0.078,1.66H86.672z"/>
	</g>
	<g>
		<path fill="#FF6352" d="M0,8.473l5.702-6.748L7.644,2.9L2.886,8.719l4.758,5.803l-1.941,1.145L0,8.918V8.473z"/>
	</g>
</g>
</svg>
